<svg xmlns="http://www.w3.org/2000/svg" viewBox="0 0 160 58" role="img" aria-labelledby="title">
  <title id="title">Amazon</title>
  <g fill="#111111">
    <text x="8" y="34" font-family="Arial, Helvetica, sans-serif" font-size="31" font-weight="700" letter-spacing="-2">amazon</text>
    <path d="M31 42c25 13 65 13 92 1 2-1 4 2 2 4-28 15-70 15-97 0-3-2 0-6 3-5Z" fill="#ff9900"/>
    <path d="M119 41c6 0 12 1 15 3-1 4-3 8-6 11-1 1-3 0-2-2 1-2 3-5 3-7-3-1-7-1-10-1-2 0-2-3 0-4Z" fill="#ff9900"/>
  </g>
</svg>
